<svg width="32" height="29" viewBox="0 0 32 29" fill="none" xmlns="http://www.w3.org/2000/svg">
<path d="M31.3937 9.57604C31.6375 9.34193 32 9.56094 32 9.93099V25.375C32 27.3763 30.6562 29 29 29H3C1.34375 29 0 27.3763 0 25.375V9.93854C0 9.56094 0.35625 9.34948 0.60625 9.58359C2.00625 10.8977 3.8625 12.5667 10.2375 18.1628C11.5563 19.3258 13.7812 21.7727 16 21.7576C18.2313 21.7802 20.5 19.2805 21.7687 18.1628C28.1437 12.5667 29.9937 10.8901 31.3937 9.57604ZM16 19.3333C17.45 19.3635 19.5375 17.1281 20.5875 16.2068C28.8812 8.93412 29.5125 8.29974 31.425 6.48724C31.7875 6.1474 32 5.61875 32 5.0599V3.625C32 1.6237 30.6562 0 29 0H3C1.34375 0 0 1.6237 0 3.625V5.0599C0 5.61875 0.2125 6.13984 0.575 6.48724C2.4875 8.29219 3.11875 8.93412 11.4125 16.2068C12.4625 17.1281 14.55 19.3635 16 19.3333Z" fill="#CFB86F"/>
</svg>
