<svg width="32" height="29" viewBox="0 0 32 29" fill="none" xmlns="http://www.w3.org/2000/svg">
<path d="M16.0036 7.06477C11.4632 7.06477 7.801 10.3844 7.801 14.5C7.801 18.6156 11.4632 21.9352 16.0036 21.9352C20.5439 21.9352 24.2061 18.6156 24.2061 14.5C24.2061 10.3844 20.5439 7.06477 16.0036 7.06477ZM16.0036 19.3339C13.0695 19.3339 10.6708 17.1661 10.6708 14.5C10.6708 11.8339 13.0624 9.66613 16.0036 9.66613C18.9448 9.66613 21.3363 11.8339 21.3363 14.5C21.3363 17.1661 18.9376 19.3339 16.0036 19.3339ZM26.4549 6.76063C26.4549 7.72481 25.5982 8.49487 24.5417 8.49487C23.478 8.49487 22.6284 7.71834 22.6284 6.76063C22.6284 5.80291 23.4851 5.02639 24.5417 5.02639C25.5982 5.02639 26.4549 5.80291 26.4549 6.76063ZM31.8876 8.52075C31.7662 6.19765 31.1808 4.13985 29.3033 2.44444C27.4329 0.749024 25.1627 0.218398 22.5999 0.101919C19.9585 -0.033973 12.0415 -0.033973 9.40011 0.101919C6.8444 0.211927 4.57423 0.742553 2.69671 2.43797C0.819186 4.13338 0.240937 6.19117 0.112437 8.51428C-0.0374791 10.9086 -0.0374791 18.085 0.112437 20.4792C0.233798 22.8024 0.819186 24.8601 2.69671 26.5556C4.57423 28.251 6.83726 28.7816 9.40011 28.8981C12.0415 29.034 19.9585 29.034 22.5999 28.8981C25.1627 28.7881 27.4329 28.2574 29.3033 26.5556C31.1737 24.8601 31.7591 22.8024 31.8876 20.4792C32.0375 18.085 32.0375 10.915 31.8876 8.52075ZM28.4752 23.0483C27.9184 24.3166 26.8404 25.2937 25.434 25.8049C23.3281 26.562 18.3308 26.3873 16.0036 26.3873C13.6763 26.3873 8.67195 26.5556 6.57312 25.8049C5.1739 25.3002 4.09593 24.323 3.53196 23.0483C2.69671 21.1393 2.88946 16.6096 2.88946 14.5C2.88946 12.3904 2.70385 7.85423 3.53196 5.95175C4.08879 4.68342 5.16676 3.70629 6.57312 3.19508C8.67909 2.43797 13.6763 2.61269 16.0036 2.61269C18.3308 2.61269 23.3352 2.44444 25.434 3.19508C26.8332 3.69982 27.9112 4.67695 28.4752 5.95175C29.3104 7.8607 29.1177 12.3904 29.1177 14.5C29.1177 16.6096 29.3104 21.1458 28.4752 23.0483Z" fill="#CFB86F"/>
</svg>
