<svg width="32" height="30" viewBox="0 0 32 30" fill="none" xmlns="http://www.w3.org/2000/svg">
<path d="M27.2071 4.35937C24.2143 1.54687 20.2286 0 15.9929 0C7.25 0 0.135714 6.66964 0.135714 14.8661C0.135714 17.4844 0.864286 20.0424 2.25 22.2991L0 30L8.40714 27.9308C10.7214 29.1161 13.3286 29.7388 15.9857 29.7388H15.9929C24.7286 29.7388 32 23.0692 32 14.8728C32 10.9018 30.2 7.17187 27.2071 4.35937ZM15.9929 27.2344C13.6214 27.2344 11.3 26.6384 9.27857 25.5134L8.8 25.2455L3.81429 26.471L5.14286 21.9107L4.82857 21.442C3.50714 19.4732 2.81429 17.2031 2.81429 14.8661C2.81429 8.0558 8.72857 2.51116 16 2.51116C19.5214 2.51116 22.8286 3.79687 25.3143 6.13393C27.8 8.47098 29.3286 11.5714 29.3214 14.8728C29.3214 21.6897 23.2571 27.2344 15.9929 27.2344ZM23.2214 17.9799C22.8286 17.7924 20.8786 16.8951 20.5143 16.7746C20.15 16.6473 19.8857 16.5871 19.6214 16.9621C19.3571 17.3371 18.6 18.1674 18.3643 18.4219C18.1357 18.6696 17.9 18.7031 17.5071 18.5156C15.1786 17.4241 13.65 16.567 12.1143 14.096C11.7071 13.4397 12.5214 13.4866 13.2786 12.067C13.4071 11.8192 13.3429 11.6049 13.2429 11.4174C13.1429 11.2299 12.35 9.40179 12.0214 8.65848C11.7 7.93527 11.3714 8.03571 11.1286 8.02232C10.9 8.00893 10.6357 8.00893 10.3714 8.00893C10.1071 8.00893 9.67857 8.10268 9.31429 8.47098C8.95 8.84598 7.92857 9.7433 7.92857 11.5714C7.92857 13.3996 9.35 15.1674 9.54286 15.4152C9.74286 15.6629 12.3357 19.4129 16.3143 21.0268C18.8286 22.0446 19.8143 22.1317 21.0714 21.9576C21.8357 21.8504 23.4143 21.0603 23.7429 20.1897C24.0714 19.3192 24.0714 18.5759 23.9714 18.4219C23.8786 18.2545 23.6143 18.1607 23.2214 17.9799Z" fill="#CFB86F"/>
</svg>
